<svg width="61" height="61" viewBox="0 0 61 61" fill="none" xmlns="http://www.w3.org/2000/svg">
<g clip-path="url(#clip0_4_2)">
<path d="M57.6323 0H3.36771C1.50721 0 0 1.50721 0 3.36771V57.6348C0 59.4928 1.50721 61 3.36771 61H32.5842V37.3778H24.6338V28.1718H32.5842V21.383C32.5842 13.5039 37.3955 9.21354 44.4258 9.21354C47.7935 9.21354 50.6859 9.46517 51.5298 9.577V17.812L46.6548 17.8145C42.8322 17.8145 42.0925 19.6318 42.0925 22.2955V28.1744H51.2095L50.0225 37.3803H42.0925V61H57.6374C59.4928 61 61 59.4928 61 57.6323V3.36771C61 1.50721 59.4928 0 57.6323 0V0Z" fill="#90929B"/>
</g>
<defs>
<clipPath id="clip0_4_2">
<rect width="61" height="61" fill="white"/>
</clipPath>
</defs>
</svg>
