<svg width="61" height="61" viewBox="0 0 61 61" fill="none" xmlns="http://www.w3.org/2000/svg">
<g clip-path="url(#clip0_4_4)">
<path d="M30.5 5.49763C38.6435 5.49763 39.6093 5.52813 42.8271 5.67554C51.0926 6.05171 54.9534 9.9735 55.3295 18.178C55.477 21.3932 55.5049 22.359 55.5049 30.5025C55.5049 38.6486 55.4744 39.6119 55.3295 42.8271C54.9508 51.024 51.1002 54.9534 42.8271 55.3295C39.6093 55.477 38.6486 55.5075 30.5 55.5075C22.3565 55.5075 21.3907 55.477 18.1755 55.3295C9.88963 54.9508 6.04917 51.0113 5.673 42.8245C5.52558 39.6093 5.49508 38.646 5.49508 30.5C5.49508 22.3565 5.52813 21.3932 5.673 18.1755C6.05171 9.9735 9.90233 6.04917 18.1755 5.673C21.3932 5.52813 22.3565 5.49763 30.5 5.49763ZM30.5 0C22.2167 0 21.1797 0.0355833 17.9264 0.183C6.84979 0.691333 0.693875 6.83708 0.185542 17.9238C0.0355833 21.1797 0 22.2167 0 30.5C0 38.7833 0.0355833 39.8228 0.183 43.0762C0.691333 54.1528 6.83708 60.3087 17.9238 60.817C21.1797 60.9644 22.2167 61 30.5 61C38.7833 61 39.8228 60.9644 43.0762 60.817C54.1426 60.3087 60.3138 54.1629 60.8145 43.0762C60.9644 39.8228 61 38.7833 61 30.5C61 22.2167 60.9644 21.1797 60.817 17.9264C60.3188 6.85996 54.1655 0.693875 43.0787 0.185542C39.8228 0.0355833 38.7833 0 30.5 0V0ZM30.5 14.8383C21.8507 14.8383 14.8383 21.8507 14.8383 30.5C14.8383 39.1493 21.8507 46.1643 30.5 46.1643C39.1493 46.1643 46.1618 39.1518 46.1618 30.5C46.1618 21.8507 39.1493 14.8383 30.5 14.8383ZM30.5 40.6667C24.8855 40.6667 20.3333 36.1171 20.3333 30.5C20.3333 24.8855 24.8855 20.3333 30.5 20.3333C36.1145 20.3333 40.6667 24.8855 40.6667 30.5C40.6667 36.1171 36.1145 40.6667 30.5 40.6667ZM46.7819 10.5606C44.7588 10.5606 43.1194 12.2 43.1194 14.2206C43.1194 16.2412 44.7588 17.8806 46.7819 17.8806C48.8025 17.8806 50.4394 16.2412 50.4394 14.2206C50.4394 12.2 48.8025 10.5606 46.7819 10.5606Z" fill="#90929B"/>
</g>
<defs>
<clipPath id="clip0_4_4">
<rect width="61" height="61" fill="white"/>
</clipPath>
</defs>
</svg>
