<svg width="150" height="142" viewBox="0 0 150 142" fill="none" xmlns="http://www.w3.org/2000/svg">
<path d="M92.5491 68.9526L95.4724 69.7264C96.648 70.0376 97.6638 70.1409 98.5199 70.0365C99.3843 69.9012 100.19 69.5517 100.937 68.9881L125.719 50.473C126.757 49.6885 127.744 49.2213 128.678 49.0715C129.652 48.8989 130.788 48.9845 132.088 49.3284L142.853 52.1779L112.796 74.0635C111.011 75.4116 109.312 76.2528 107.698 76.5871C108.62 77.2282 109.392 77.9953 110.014 78.8882C110.675 79.7585 111.233 80.8328 111.685 82.1112L126.577 119.668L115.58 116.757C114.095 116.364 113.035 115.868 112.4 115.27C111.805 114.649 111.367 113.871 111.087 112.936L98.7359 83.1524C98.3716 82.1622 97.8482 81.3947 97.1659 80.85C96.4835 80.3053 95.4154 79.8405 93.9614 79.4556L90.0173 78.4117L82.1239 107.902L69.6417 104.598L87.588 37.5499L100.07 40.8538L92.5491 68.9526Z" fill="#FF1A29"/>
<path d="M60.415 99.1146C55.3553 100.931 50.2661 102.011 45.1475 102.353C40.0071 102.635 35.6281 102.201 32.0108 101.052L32.9828 88.2587C36.3923 89.2104 40.1636 89.6583 44.2966 89.6022C48.468 89.4644 52.4511 88.7142 56.2459 87.3516C59.1372 86.3134 61.3579 85.21 62.9081 84.0414C64.4967 82.7909 65.527 81.503 65.9989 80.1775C66.4709 78.8521 66.4666 77.5276 65.986 76.2041C65.3744 74.5197 64.2313 73.4342 62.5566 72.9475C60.8601 72.4007 58.8184 72.2158 56.4316 72.3929C54.0228 72.5098 51.395 72.7733 48.5481 73.1836C45.7396 73.512 42.8572 73.731 39.9011 73.8404C37.0052 73.9283 34.2328 73.6998 31.5838 73.1549C28.9348 72.6101 26.5244 71.5036 24.3526 69.8354C22.2411 68.1456 20.5737 65.6163 19.3505 62.2475C18.0399 58.6381 17.8132 55.0135 18.6704 51.3736C19.5659 47.6521 21.6546 44.2161 24.9364 41.0656C28.2566 37.8335 32.8983 35.1467 38.8615 33.0055C42.837 31.578 46.927 30.6534 51.1315 30.2317C55.3142 29.7498 59.2198 29.9114 62.8485 30.7165L62.361 43.4376C58.7979 42.813 55.3986 42.6396 52.1631 42.9174C48.9058 43.135 45.8617 43.752 43.0306 44.7686C40.1996 45.7851 38.0007 46.9487 36.434 48.2593C34.8672 49.5698 33.8889 50.9071 33.499 52.2711C33.0873 53.575 33.1326 54.9187 33.635 56.3023C34.2248 57.9265 35.3679 59.0121 37.0644 59.5589C38.7391 60.0456 40.7699 60.2004 43.1567 60.0234C45.5436 59.8463 48.1413 59.5936 50.9498 59.2651C53.8186 58.915 56.69 58.666 59.5641 58.518C62.4983 58.3484 65.29 58.536 67.939 59.0808C70.588 59.6256 72.9683 60.743 75.0798 62.4328C77.2515 64.101 78.9381 66.5894 80.1395 69.898C81.4283 73.4473 81.6139 77.0526 80.6965 80.7141C79.7791 84.3755 77.6603 87.8223 74.3401 91.0545C71.0802 94.2651 66.4385 96.9518 60.415 99.1146Z" fill="#FF1A29"/>
<path d="M45.1725 123.007C45.0765 123.175 44.9725 123.299 44.8605 123.379C44.7565 123.451 44.6245 123.487 44.4645 123.487C44.2965 123.487 44.1125 123.427 43.9125 123.307C43.7205 123.179 43.4885 123.039 43.2165 122.887C42.9445 122.735 42.6245 122.599 42.2565 122.479C41.8965 122.351 41.4685 122.287 40.9725 122.287C40.5245 122.287 40.1325 122.343 39.7965 122.455C39.4605 122.559 39.1765 122.707 38.9445 122.899C38.7205 123.091 38.5525 123.323 38.4405 123.595C38.3285 123.859 38.2725 124.151 38.2725 124.471C38.2725 124.879 38.3845 125.219 38.6085 125.491C38.8405 125.763 39.1445 125.995 39.5205 126.187C39.8965 126.379 40.3245 126.551 40.8045 126.703C41.2845 126.855 41.7765 127.019 42.2805 127.195C42.7845 127.363 43.2765 127.563 43.7565 127.795C44.2365 128.019 44.6645 128.307 45.0405 128.659C45.4165 129.003 45.7165 129.427 45.9405 129.931C46.1725 130.435 46.2885 131.047 46.2885 131.767C46.2885 132.551 46.1525 133.287 45.8805 133.975C45.6165 134.655 45.2245 135.251 44.7045 135.763C44.1925 136.267 43.5645 136.667 42.8205 136.963C42.0765 137.251 41.2245 137.395 40.2645 137.395C39.7125 137.395 39.1685 137.339 38.6325 137.227C38.0965 137.123 37.5805 136.971 37.0845 136.771C36.5965 136.571 36.1365 136.331 35.7045 136.051C35.2725 135.771 34.8885 135.459 34.5525 135.115L35.5005 133.567C35.5805 133.455 35.6845 133.363 35.8125 133.291C35.9405 133.211 36.0765 133.171 36.2205 133.171C36.4205 133.171 36.6365 133.255 36.8685 133.423C37.1005 133.583 37.3765 133.763 37.6965 133.963C38.0165 134.163 38.3885 134.347 38.8125 134.515C39.2445 134.675 39.7605 134.755 40.3605 134.755C41.2805 134.755 41.9925 134.539 42.4965 134.107C43.0005 133.667 43.2525 133.039 43.2525 132.223C43.2525 131.767 43.1365 131.395 42.9045 131.107C42.6805 130.819 42.3805 130.579 42.0045 130.387C41.6285 130.187 41.2005 130.019 40.7205 129.883C40.2405 129.747 39.7525 129.599 39.2565 129.439C38.7605 129.279 38.2725 129.087 37.7925 128.863C37.3125 128.639 36.8845 128.347 36.5085 127.987C36.1325 127.627 35.8285 127.179 35.5965 126.643C35.3725 126.099 35.2605 125.431 35.2605 124.639C35.2605 124.007 35.3845 123.391 35.6325 122.791C35.8885 122.191 36.2565 121.659 36.7365 121.195C37.2165 120.731 37.8085 120.359 38.5125 120.079C39.2165 119.799 40.0245 119.659 40.9365 119.659C41.9605 119.659 42.9045 119.819 43.7685 120.139C44.6325 120.459 45.3685 120.907 45.9765 121.483L45.1725 123.007ZM61.2244 122.503H55.9924V137.203H52.7644V122.503H47.5324V119.851H61.2244V122.503ZM70.479 134.599C71.103 134.599 71.659 134.495 72.147 134.287C72.643 134.079 73.059 133.787 73.395 133.411C73.731 133.035 73.987 132.579 74.163 132.043C74.347 131.507 74.439 130.907 74.439 130.243V119.851H77.667V130.243C77.667 131.275 77.499 132.231 77.163 133.111C76.835 133.983 76.359 134.739 75.735 135.379C75.119 136.011 74.367 136.507 73.479 136.867C72.591 137.219 71.591 137.395 70.479 137.395C69.359 137.395 68.355 137.219 67.467 136.867C66.579 136.507 65.823 136.011 65.199 135.379C64.583 134.739 64.107 133.983 63.771 133.111C63.443 132.231 63.279 131.275 63.279 130.243V119.851H66.507V130.231C66.507 130.895 66.595 131.495 66.771 132.031C66.955 132.567 67.215 133.027 67.551 133.411C67.895 133.787 68.311 134.079 68.799 134.287C69.295 134.495 69.855 134.599 70.479 134.599ZM96.7155 128.527C96.7155 129.799 96.5035 130.967 96.0795 132.031C95.6555 133.095 95.0595 134.011 94.2915 134.779C93.5235 135.547 92.5995 136.143 91.5195 136.567C90.4395 136.991 89.2395 137.203 87.9195 137.203H81.3075V119.851H87.9195C89.2395 119.851 90.4395 120.067 91.5195 120.499C92.5995 120.923 93.5235 121.519 94.2915 122.287C95.0595 123.047 95.6555 123.959 96.0795 125.023C96.5035 126.087 96.7155 127.255 96.7155 128.527ZM93.4035 128.527C93.4035 127.575 93.2755 126.723 93.0195 125.971C92.7715 125.211 92.4075 124.571 91.9275 124.051C91.4555 123.523 90.8795 123.119 90.1995 122.839C89.5275 122.559 88.7675 122.419 87.9195 122.419H84.5475V134.635H87.9195C88.7675 134.635 89.5275 134.495 90.1995 134.215C90.8795 133.935 91.4555 133.535 91.9275 133.015C92.4075 132.487 92.7715 131.847 93.0195 131.095C93.2755 130.335 93.4035 129.479 93.4035 128.527ZM102.805 137.203H99.5653V119.851H102.805V137.203ZM123.238 128.527C123.238 129.799 123.026 130.979 122.602 132.067C122.186 133.147 121.594 134.083 120.826 134.875C120.058 135.667 119.134 136.287 118.054 136.735C116.974 137.175 115.774 137.395 114.454 137.395C113.142 137.395 111.946 137.175 110.866 136.735C109.786 136.287 108.858 135.667 108.082 134.875C107.314 134.083 106.718 133.147 106.294 132.067C105.87 130.979 105.658 129.799 105.658 128.527C105.658 127.255 105.87 126.079 106.294 124.999C106.718 123.911 107.314 122.971 108.082 122.179C108.858 121.387 109.786 120.771 110.866 120.331C111.946 119.883 113.142 119.659 114.454 119.659C115.334 119.659 116.162 119.763 116.938 119.971C117.714 120.171 118.426 120.459 119.074 120.835C119.722 121.203 120.302 121.655 120.814 122.191C121.334 122.719 121.774 123.311 122.134 123.967C122.494 124.623 122.766 125.335 122.95 126.103C123.142 126.871 123.238 127.679 123.238 128.527ZM119.938 128.527C119.938 127.575 119.81 126.723 119.554 125.971C119.298 125.211 118.934 124.567 118.462 124.039C117.99 123.511 117.414 123.107 116.734 122.827C116.062 122.547 115.302 122.407 114.454 122.407C113.606 122.407 112.842 122.547 112.162 122.827C111.49 123.107 110.914 123.511 110.434 124.039C109.962 124.567 109.598 125.211 109.342 125.971C109.086 126.723 108.958 127.575 108.958 128.527C108.958 129.479 109.086 130.335 109.342 131.095C109.598 131.847 109.962 132.487 110.434 133.015C110.914 133.535 111.49 133.935 112.162 134.215C112.842 134.495 113.606 134.635 114.454 134.635C115.302 134.635 116.062 134.495 116.734 134.215C117.414 133.935 117.99 133.535 118.462 133.015C118.934 132.487 119.298 131.847 119.554 131.095C119.81 130.335 119.938 129.479 119.938 128.527Z" fill="#FF1A29"/>
</svg>
