<svg width="61" height="61" viewBox="0 0 61 61" fill="none" xmlns="http://www.w3.org/2000/svg">
<path fill-rule="evenodd" clip-rule="evenodd" d="M48.2917 61H12.7083C5.69079 61 0 55.3092 0 48.2917V12.7083C0 5.69079 5.69079 0 12.7083 0H48.2917C55.3118 0 61 5.69079 61 12.7083V48.2917C61 55.3092 55.3118 61 48.2917 61ZM41.3173 47.9155C41.8638 48.3044 42.5653 48.401 43.1931 48.162C43.8183 47.9257 44.2809 47.3894 44.4207 46.7387C45.8923 39.8203 49.4659 22.3031 50.8054 16.01C50.9045 15.5347 50.7368 15.0416 50.3657 14.7239C49.992 14.4087 49.4735 14.3172 49.0135 14.4875C41.9095 17.1156 20.0283 25.3252 11.0842 28.637C10.5174 28.8454 10.1489 29.3918 10.1667 29.9917C10.187 30.589 10.5911 31.11 11.1706 31.2854C15.1814 32.4825 20.4477 34.1524 20.4477 34.1524C20.4477 34.1524 22.9055 41.5842 24.189 45.3611C24.3492 45.8364 24.7228 46.21 25.2108 46.3371C25.7013 46.4642 26.2198 46.332 26.5858 45.9864C28.6471 44.042 31.8318 41.0352 31.8318 41.0352C31.8318 41.0352 37.8835 45.473 41.3173 47.9155ZM22.6615 33.2145L25.5056 42.5983L26.1385 36.6559C26.1385 36.6559 37.1287 26.7434 43.3964 21.0908C43.5794 20.9255 43.6048 20.6485 43.4523 20.4528C43.2998 20.2571 43.0228 20.2113 42.8144 20.3435C35.5528 24.982 22.6615 33.2145 22.6615 33.2145Z" fill="#90929B"/>
</svg>
